<?xml version="1.0" standalone="no"?><!DOCTYPE svg PUBLIC "-//W3C//DTD SVG 1.1//EN" "http://www.w3.org/Graphics/SVG/1.1/DTD/svg11.dtd"><svg t="1663207077154" class="icon" viewBox="0 0 1024 1024" version="1.1" xmlns="http://www.w3.org/2000/svg" p-id="1578" xmlns:xlink="http://www.w3.org/1999/xlink" width="32" height="32"><path d="M954.215 428.285A450 450 0 1 0 70.175 597.05a440.115 440.115 0 0 0 65.1 161.895 34.125 34.125 0 1 0 56.88-37.725 382.65 382.65 0 0 1 3.435-423.96 375.78 375.78 0 0 1 243.975-160.5 381.69 381.69 0 1 1-105.54 712.77 34.5 34.5 0 0 0-32.205 61.05 447.21 447.21 0 0 0 209.7 51.45 438.735 438.735 0 0 0 84.3-8.235A451.335 451.335 0 0 0 954.23 428.3z" fill="#0fd624" p-id="1579"></path><path d="M474.23 575.6h-122.595a34.635 34.635 0 0 0 0 69.27h122.595v109.5a34.635 34.635 0 1 0 69.27 0v-109.5h122.595a34.635 34.635 0 1 0 0-69.27H543.5v-67.185a21.36 21.36 0 0 0-0.69-6.93h123.285a34.635 34.635 0 1 0 0-69.27H352.325a34.635 34.635 0 1 0 0 69.27h123.285a23.58 23.58 0 0 0-0.69 6.93v67.185z" fill="#0fd624" p-id="1580"></path><path d="M412.595 391.355a34.785 34.785 0 0 0 49.185-49.185l-74.805-74.805a34.785 34.785 0 1 0-49.185 49.185z" fill="#0fd624" p-id="1581"></path><path d="M596.825 391.355l74.805-74.805a34.77 34.77 0 1 0-49.17-49.185l-74.805 74.805a34.29 34.29 0 0 0 0 49.185 35.565 35.565 0 0 0 49.17 0z" fill="#0fd624" p-id="1582"></path></svg>