<?xml version="1.0" standalone="no"?><!DOCTYPE svg PUBLIC "-//W3C//DTD SVG 1.1//EN" "http://www.w3.org/Graphics/SVG/1.1/DTD/svg11.dtd"><svg t="1663206970830" class="icon" viewBox="0 0 1024 1024" version="1.1" xmlns="http://www.w3.org/2000/svg" p-id="1290" xmlns:xlink="http://www.w3.org/1999/xlink" width="32" height="32"><path d="M737 512a225 225 0 1 1 0 450 225 225 0 0 1 0-450zM153.99285752 702.28571416a42.36428584 42.36428584 0 0 1 23.97857081 54.77142832 23.01428584 23.01428584 0 0 0-1.86428585 8.61428584c0 38.63571416 105.17142832 94.75714248 269.74285752 107.35714336 11.37857168 0.9 52.39285752 9 49.37142832 47.25-2.95714248 38.31428584-43.84285752 37.99285752-55.73571416 37.09285664C256.59285752 943.42142832 91.57142832 878.17142833 91.57142832 765.67142833c0-13.24285752 2.57142833-26.55 7.58571416-39.40714249a42.3 42.3 0 0 1 54.83571504-24.04285751zM737 576.28571416a160.71428584 160.71428584 0 1 0 0 321.42857168 160.71428584 160.71428584 0 0 0 0-321.42857168z m41.97857168 101.7a31.05 31.05 0 0 1 43.3285708 0 29.7 29.7 0 0 1 0 42.49285751l-75.40714248 76.24285665a31.11428584 31.11428584 0 0 1-43.32857168 1e-8l-46.09285664-45.64285665a29.7 29.7 0 0 1 0-42.49285752 31.11428584 31.11428584 0 0 1 43.39285664 0l24.36428584 24.36428584zM153.92857168 448.48571416a42.36428584 42.36428584 0 0 1 23.9785708 54.83571416 23.01428584 23.01428584 0 0 0-1.86428496 8.61428584c0 35.29285752 87.68571416 85.11428584 228.21428496 103.11428584 16.32857167 2.12142833 39.53571416 9.9 39.53571504 45.25714248 0 35.35714248-26.93571416 41.52857168-46.60714336 39.15C231.90714248 679.14285752 91.57142832 615.62857168 91.57142832 511.93571416c0-13.24285752 2.57142833-26.55 7.58571416-39.47142832a42.3 42.3 0 0 1 54.83571504-23.97857168zM91.57142832 256.78571416c0-255.40714248 845.80714248-255.40714248 845.80714335 0 0 127.73571416-212.78571416 194.52857168-422.87142919 194.52857168-210.21428584 0-423-66.85714248-423-194.52857168z m422.93571416-109.92857168c-203.4 0-338.33571416 66.15-338.33571416 109.92857168 0 43.71428584 135 109.92857168 338.33571416 109.92857168s338.33571416-66.21428584 338.33571504-109.92857168c0-43.77857168-135-109.92857168-338.33571504-109.92857168z" fill="#c04371" p-id="1291"></path></svg>